<svg width="191" height="292" viewBox="0 0 191 292" fill="none" xmlns="http://www.w3.org/2000/svg">
<path d="M26 207C32.635 191.228 52.4596 188 92 188H146C155 193 159.5 195 159.5 212.5C162.532 226.145 169.983 244.134 174.85 257.167C178.841 267.85 184.913 277.789 188.557 288.591C189.364 290.981 187.718 289.551 186.607 288.893C183.436 287.014 180.502 284.771 177.24 283.042C161.663 274.784 146.495 265.936 131.265 257.052L130.708 256.727C129.899 256.255 121.124 249.869 120.188 250.712C118.835 251.929 118.201 254.746 117.386 256.315C114.308 262.243 110.118 267.533 107.031 273.483C104.534 278.294 102.969 283.508 100.438 288.289C99.4505 290.154 98.7357 289.52 98.0208 287.931C94.4468 279.989 88.8997 272.829 84.8908 265.023C82.0222 259.436 79.1922 253.593 77.2546 247.608C76.8975 246.505 76.8453 243.188 75.6065 244.147C67.7655 250.212 58.8462 253.734 49.5662 257.029C37.2378 261.407 25.007 265.391 13.2528 271.203C12.8296 271.412 1.81824 276.94 2.2104 275.735C2.91914 273.559 3.11517 271.401 3.47396 269.143C4.33377 263.731 5.98146 259.334 8.69299 254.53C12.0856 248.518 14.7519 242.396 17.0984 235.906C19.8195 228.38 22.8956 214.379 26 207Z" fill="#D41D1D" stroke="black" stroke-width="3" stroke-linecap="round"/>
<path d="M52 200C53.9742 194.381 112.046 192.101 112.25 186C113.291 189.124 129.639 195.299 133.317 199.008C132.891 196.348 132.975 195.96 134 200C133.905 199.695 133.669 199.363 133.317 199.008C134.335 205.375 138.271 224.764 139.196 227.61C140.03 230.175 140.692 232.843 141.806 235.302C142.272 236.332 142.301 236.625 141.311 236.016C136.779 233.227 130.66 232.042 125.819 229.698C121.833 227.768 116.781 224.644 112.25 224.644C110.74 224.644 110.57 226.542 110.162 227.72C109.632 229.25 108.163 230.47 107.333 231.841C106.195 233.717 105.288 235.88 104.613 237.966C103.616 241.048 103.97 240.554 102.086 239.477C99.2491 237.856 97.2283 233.883 94.9443 231.566C92.8244 229.415 89.5771 224.427 86.4291 224.644C82.71 224.9 79.4027 226.499 75.8537 227.116C72.327 227.729 69.3955 228.761 65.91 229.588C60.4902 230.874 54.8789 231.425 49.4014 232.445C47.3945 232.819 45.1987 233.544 43.1386 233.544C42.2518 233.544 43.8558 232.023 44.0451 231.703C45.1238 229.883 51.2995 201.994 52 200Z" fill="#DF861D"/>
<path d="M112.25 186C112.046 192.101 53.9742 194.381 52 200C51.2995 201.994 45.1238 229.883 44.0451 231.703C43.8558 232.023 42.2518 233.544 43.1386 233.544C45.1987 233.544 47.3945 232.819 49.4014 232.445C54.8789 231.425 60.4902 230.874 65.91 229.588C69.3955 228.761 72.327 227.729 75.8537 227.116C79.4027 226.499 82.71 224.9 86.4291 224.644C89.5771 224.427 92.8244 229.415 94.9443 231.566C97.2283 233.883 99.2491 237.856 102.086 239.477C103.97 240.554 103.616 241.048 104.613 237.966C105.288 235.88 106.195 233.717 107.333 231.841C108.163 230.47 109.633 229.25 110.162 227.72C110.57 226.542 110.74 224.644 112.25 224.644C116.781 224.644 121.833 227.768 125.819 229.698C130.66 232.042 136.779 233.227 141.311 236.016C142.301 236.625 142.272 236.332 141.806 235.302C140.692 232.843 140.03 230.175 139.196 227.61C137.885 223.575 130.521 186.289 134 200C132.909 196.509 113.391 189.423 112.25 186Z" stroke="black" stroke-width="3" stroke-linecap="round"/>
<mask id="path-4-inside-1_0_1" fill="white">
<path fill-rule="evenodd" clip-rule="evenodd" d="M161 208.416L161 209H24.0003L24 208.416C24 93.3111 54.6685 0 92.5 0C130.332 0 161 93.3111 161 208.416ZM110.25 104.104L110.25 104.25H76.0001L76 104.104C76 75.3278 83.6671 52 93.125 52C102.583 52 110.25 75.3278 110.25 104.104Z"/>
</mask>
<path fill-rule="evenodd" clip-rule="evenodd" d="M161 208.416L161 209H24.0003L24 208.416C24 93.3111 54.6685 0 92.5 0C130.332 0 161 93.3111 161 208.416ZM110.25 104.104L110.25 104.25H76.0001L76 104.104C76 75.3278 83.6671 52 93.125 52C102.583 52 110.25 75.3278 110.25 104.104Z" fill="#7E7E7E"/>
<path fill-rule="evenodd" clip-rule="evenodd" d="M161 208.416L161 209H24.0003L24 208.416C24 93.3111 54.6685 0 92.5 0C130.332 0 161 93.3111 161 208.416ZM110.25 104.104L110.25 104.25H76.0001L76 104.104C76 75.3278 83.6671 52 93.125 52C102.583 52 110.25 75.3278 110.25 104.104Z" fill="#7E7E7E"/>
<path fill-rule="evenodd" clip-rule="evenodd" d="M161 208.416L161 209H24.0003L24 208.416C24 93.3111 54.6685 0 92.5 0C130.332 0 161 93.3111 161 208.416ZM110.25 104.104L110.25 104.25H76.0001L76 104.104C76 75.3278 83.6671 52 93.125 52C102.583 52 110.25 75.3278 110.25 104.104Z" fill="#7E7E7E"/>
<path d="M161 209V212H163.998L164 209.001L161 209ZM161 208.416L164 208.418V208.416H161ZM24.0003 209L21.0003 209.001L21.0016 212H24.0003V209ZM24 208.416L21 208.416L21 208.418L24 208.416ZM110.25 104.25V107.25H113.249L113.25 104.251L110.25 104.25ZM110.25 104.104L113.25 104.105V104.104H110.25ZM76.0001 104.25L73.0001 104.251L73.0014 107.25H76.0001V104.25ZM76 104.104L73 104.104L73 104.105L76 104.104ZM164 209.001L164 208.418L158 208.415L158 208.999L164 209.001ZM24.0003 212H161V206H24.0003V212ZM21 208.418L21.0003 209.001L27.0003 208.999L27 208.415L21 208.418ZM92.5 -3C81.7105 -3 71.9249 3.65423 63.4678 14.5376C54.9807 25.4597 47.4678 41.0769 41.2132 60.107C28.6933 98.1995 21 150.634 21 208.416H27C27 151.093 34.6409 99.3197 46.9132 61.9804C53.0547 43.2946 60.3023 28.3899 68.2056 18.2191C76.139 8.00966 84.3737 3 92.5 3V-3ZM164 208.416C164 150.634 156.307 98.1995 143.787 60.107C137.532 41.0769 130.019 25.4597 121.532 14.5376C113.075 3.65423 103.289 -3 92.5 -3V3C100.626 3 108.861 8.00966 116.794 18.2191C124.698 28.3899 131.945 43.2946 138.087 61.9804C150.359 99.3197 158 151.093 158 208.416H164ZM113.25 104.251L113.25 104.105L107.25 104.103L107.25 104.249L113.25 104.251ZM76.0001 107.25H110.25V101.25H76.0001V107.25ZM73 104.105L73.0001 104.251L79.0001 104.249L79 104.103L73 104.105ZM93.125 49C89.4289 49 86.4009 51.2803 84.0903 54.2538C81.7496 57.2661 79.7719 61.4376 78.1658 66.3242C74.943 76.1298 73 89.4867 73 104.104H79C79 89.9451 80.8906 77.25 83.8658 68.1976C85.3587 63.6553 87.0712 60.1963 88.8281 57.9354C90.615 55.6357 92.0921 55 93.125 55V49ZM113.25 104.104C113.25 89.4867 111.307 76.1298 108.084 66.3242C106.478 61.4376 104.5 57.2661 102.16 54.2538C99.8491 51.2803 96.8211 49 93.125 49V55C94.1579 55 95.635 55.6357 97.4219 57.9354C99.1788 60.1963 100.891 63.6553 102.384 68.1976C105.359 77.25 107.25 89.9451 107.25 104.104H113.25Z" fill="black" mask="url(#path-4-inside-1_0_1)"/>
</svg>
